<svg xmlns="http://www.w3.org/2000/svg" viewBox="0 0 1000 700" preserveAspectRatio="none"><rect width="1000" height="700" fill="#f8f4e9"/><g opacity="0.5"><ellipse cx="500.0" cy="350.0" rx="235" ry="86" transform="rotate(0.00 500.0 350.0)" fill="none" stroke="#93a2c2" stroke-width="0.55" opacity="0.28"/><ellipse cx="500.0" cy="350.0" rx="235" ry="86" transform="rotate(6.00 500.0 350.0)" fill="none" stroke="#93a2c2" stroke-width="0.55" opacity="0.28"/><ellipse cx="500.0" cy="350.0" rx="235" ry="86" transform="rotate(12.00 500.0 350.0)" fill="none" stroke="#93a2c2" stroke-width="0.55" opacity="0.28"/><ellipse cx="500.0" cy="350.0" rx="235" ry="86" transform="rotate(18.00 500.0 350.0)" fill="none" stroke="#93a2c2" stroke-width="0.55" opacity="0.28"/><ellipse cx="500.0" cy="350.0" rx="235" ry="86" transform="rotate(24.00 500.0 350.0)" fill="none" stroke="#93a2c2" stroke-width="0.55" opacity="0.28"/><ellipse cx="500.0" cy="350.0" rx="235" ry="86" transform="rotate(30.00 500.0 350.0)" fill="none" stroke="#93a2c2" stroke-width="0.55" opacity="0.28"/><ellipse cx="500.0" cy="350.0" rx="235" ry="86" transform="rotate(36.00 500.0 350.0)" fill="none" stroke="#93a2c2" stroke-width="0.55" opacity="0.28"/><ellipse cx="500.0" cy="350.0" rx="235" ry="86" transform="rotate(42.00 500.0 350.0)" fill="none" stroke="#93a2c2" stroke-width="0.55" opacity="0.28"/><ellipse cx="500.0" cy="350.0" rx="235" ry="86" transform="rotate(48.00 500.0 350.0)" fill="none" stroke="#93a2c2" stroke-width="0.55" opacity="0.28"/><ellipse cx="500.0" cy="350.0" rx="235" ry="86" transform="rotate(54.00 500.0 350.0)" fill="none" stroke="#93a2c2" stroke-width="0.55" opacity="0.28"/><ellipse cx="500.0" cy="350.0" rx="235" ry="86" transform="rotate(60.00 500.0 350.0)" fill="none" stroke="#93a2c2" stroke-width="0.55" opacity="0.28"/><ellipse cx="500.0" cy="350.0" rx="235" ry="86" transform="rotate(66.00 500.0 350.0)" fill="none" stroke="#93a2c2" stroke-width="0.55" opacity="0.28"/><ellipse cx="500.0" cy="350.0" rx="235" ry="86" transform="rotate(72.00 500.0 350.0)" fill="none" stroke="#93a2c2" stroke-width="0.55" opacity="0.28"/><ellipse cx="500.0" cy="350.0" rx="235" ry="86" transform="rotate(78.00 500.0 350.0)" fill="none" stroke="#93a2c2" stroke-width="0.55" opacity="0.28"/><ellipse cx="500.0" cy="350.0" rx="235" ry="86" transform="rotate(84.00 500.0 350.0)" fill="none" stroke="#93a2c2" stroke-width="0.55" opacity="0.28"/><ellipse cx="500.0" cy="350.0" rx="235" ry="86" transform="rotate(90.00 500.0 350.0)" fill="none" stroke="#93a2c2" stroke-width="0.55" opacity="0.28"/><ellipse cx="500.0" cy="350.0" rx="235" ry="86" transform="rotate(96.00 500.0 350.0)" fill="none" stroke="#93a2c2" stroke-width="0.55" opacity="0.28"/><ellipse cx="500.0" cy="350.0" rx="235" ry="86" transform="rotate(102.00 500.0 350.0)" fill="none" stroke="#93a2c2" stroke-width="0.55" opacity="0.28"/><ellipse cx="500.0" cy="350.0" rx="235" ry="86" transform="rotate(108.00 500.0 350.0)" fill="none" stroke="#93a2c2" stroke-width="0.55" opacity="0.28"/><ellipse cx="500.0" cy="350.0" rx="235" ry="86" transform="rotate(114.00 500.0 350.0)" fill="none" stroke="#93a2c2" stroke-width="0.55" opacity="0.28"/><ellipse cx="500.0" cy="350.0" rx="235" ry="86" transform="rotate(120.00 500.0 350.0)" fill="none" stroke="#93a2c2" stroke-width="0.55" opacity="0.28"/><ellipse cx="500.0" cy="350.0" rx="235" ry="86" transform="rotate(126.00 500.0 350.0)" fill="none" stroke="#93a2c2" stroke-width="0.55" opacity="0.28"/><ellipse cx="500.0" cy="350.0" rx="235" ry="86" transform="rotate(132.00 500.0 350.0)" fill="none" stroke="#93a2c2" stroke-width="0.55" opacity="0.28"/><ellipse cx="500.0" cy="350.0" rx="235" ry="86" transform="rotate(138.00 500.0 350.0)" fill="none" stroke="#93a2c2" stroke-width="0.55" opacity="0.28"/><ellipse cx="500.0" cy="350.0" rx="235" ry="86" transform="rotate(144.00 500.0 350.0)" fill="none" stroke="#93a2c2" stroke-width="0.55" opacity="0.28"/><ellipse cx="500.0" cy="350.0" rx="235" ry="86" transform="rotate(150.00 500.0 350.0)" fill="none" stroke="#93a2c2" stroke-width="0.55" opacity="0.28"/><ellipse cx="500.0" cy="350.0" rx="235" ry="86" transform="rotate(156.00 500.0 350.0)" fill="none" stroke="#93a2c2" stroke-width="0.55" opacity="0.28"/><ellipse cx="500.0" cy="350.0" rx="235" ry="86" transform="rotate(162.00 500.0 350.0)" fill="none" stroke="#93a2c2" stroke-width="0.55" opacity="0.28"/><ellipse cx="500.0" cy="350.0" rx="235" ry="86" transform="rotate(168.00 500.0 350.0)" fill="none" stroke="#93a2c2" stroke-width="0.55" opacity="0.28"/><ellipse cx="500.0" cy="350.0" rx="235" ry="86" transform="rotate(174.00 500.0 350.0)" fill="none" stroke="#93a2c2" stroke-width="0.55" opacity="0.28"/></g><g opacity="0.4"><ellipse cx="500.0" cy="350.0" rx="150" ry="150" transform="rotate(0.00 500.0 350.0)" fill="none" stroke="#93a2c2" stroke-width="0.45" opacity="0.25"/><ellipse cx="500.0" cy="350.0" rx="150" ry="150" transform="rotate(7.50 500.0 350.0)" fill="none" stroke="#93a2c2" stroke-width="0.45" opacity="0.25"/><ellipse cx="500.0" cy="350.0" rx="150" ry="150" transform="rotate(15.00 500.0 350.0)" fill="none" stroke="#93a2c2" stroke-width="0.45" opacity="0.25"/><ellipse cx="500.0" cy="350.0" rx="150" ry="150" transform="rotate(22.50 500.0 350.0)" fill="none" stroke="#93a2c2" stroke-width="0.45" opacity="0.25"/><ellipse cx="500.0" cy="350.0" rx="150" ry="150" transform="rotate(30.00 500.0 350.0)" fill="none" stroke="#93a2c2" stroke-width="0.45" opacity="0.25"/><ellipse cx="500.0" cy="350.0" rx="150" ry="150" transform="rotate(37.50 500.0 350.0)" fill="none" stroke="#93a2c2" stroke-width="0.45" opacity="0.25"/><ellipse cx="500.0" cy="350.0" rx="150" ry="150" transform="rotate(45.00 500.0 350.0)" fill="none" stroke="#93a2c2" stroke-width="0.45" opacity="0.25"/><ellipse cx="500.0" cy="350.0" rx="150" ry="150" transform="rotate(52.50 500.0 350.0)" fill="none" stroke="#93a2c2" stroke-width="0.45" opacity="0.25"/><ellipse cx="500.0" cy="350.0" rx="150" ry="150" transform="rotate(60.00 500.0 350.0)" fill="none" stroke="#93a2c2" stroke-width="0.45" opacity="0.25"/><ellipse cx="500.0" cy="350.0" rx="150" ry="150" transform="rotate(67.50 500.0 350.0)" fill="none" stroke="#93a2c2" stroke-width="0.45" opacity="0.25"/><ellipse cx="500.0" cy="350.0" rx="150" ry="150" transform="rotate(75.00 500.0 350.0)" fill="none" stroke="#93a2c2" stroke-width="0.45" opacity="0.25"/><ellipse cx="500.0" cy="350.0" rx="150" ry="150" transform="rotate(82.50 500.0 350.0)" fill="none" stroke="#93a2c2" stroke-width="0.45" opacity="0.25"/><ellipse cx="500.0" cy="350.0" rx="150" ry="150" transform="rotate(90.00 500.0 350.0)" fill="none" stroke="#93a2c2" stroke-width="0.45" opacity="0.25"/><ellipse cx="500.0" cy="350.0" rx="150" ry="150" transform="rotate(97.50 500.0 350.0)" fill="none" stroke="#93a2c2" stroke-width="0.45" opacity="0.25"/><ellipse cx="500.0" cy="350.0" rx="150" ry="150" transform="rotate(105.00 500.0 350.0)" fill="none" stroke="#93a2c2" stroke-width="0.45" opacity="0.25"/><ellipse cx="500.0" cy="350.0" rx="150" ry="150" transform="rotate(112.50 500.0 350.0)" fill="none" stroke="#93a2c2" stroke-width="0.45" opacity="0.25"/><ellipse cx="500.0" cy="350.0" rx="150" ry="150" transform="rotate(120.00 500.0 350.0)" fill="none" stroke="#93a2c2" stroke-width="0.45" opacity="0.25"/><ellipse cx="500.0" cy="350.0" rx="150" ry="150" transform="rotate(127.50 500.0 350.0)" fill="none" stroke="#93a2c2" stroke-width="0.45" opacity="0.25"/><ellipse cx="500.0" cy="350.0" rx="150" ry="150" transform="rotate(135.00 500.0 350.0)" fill="none" stroke="#93a2c2" stroke-width="0.45" opacity="0.25"/><ellipse cx="500.0" cy="350.0" rx="150" ry="150" transform="rotate(142.50 500.0 350.0)" fill="none" stroke="#93a2c2" stroke-width="0.45" opacity="0.25"/><ellipse cx="500.0" cy="350.0" rx="150" ry="150" transform="rotate(150.00 500.0 350.0)" fill="none" stroke="#93a2c2" stroke-width="0.45" opacity="0.25"/><ellipse cx="500.0" cy="350.0" rx="150" ry="150" transform="rotate(157.50 500.0 350.0)" fill="none" stroke="#93a2c2" stroke-width="0.45" opacity="0.25"/><ellipse cx="500.0" cy="350.0" rx="150" ry="150" transform="rotate(165.00 500.0 350.0)" fill="none" stroke="#93a2c2" stroke-width="0.45" opacity="0.25"/><ellipse cx="500.0" cy="350.0" rx="150" ry="150" transform="rotate(172.50 500.0 350.0)" fill="none" stroke="#93a2c2" stroke-width="0.45" opacity="0.25"/></g><g opacity="0.55"><ellipse cx="0" cy="0" rx="300" ry="104" transform="rotate(0.00 0 0)" fill="none" stroke="#b9962f" stroke-width="0.5" opacity="0.7"/><ellipse cx="0" cy="0" rx="300" ry="104" transform="rotate(6.92 0 0)" fill="none" stroke="#b9962f" stroke-width="0.5" opacity="0.7"/><ellipse cx="0" cy="0" rx="300" ry="104" transform="rotate(13.85 0 0)" fill="none" stroke="#b9962f" stroke-width="0.5" opacity="0.7"/><ellipse cx="0" cy="0" rx="300" ry="104" transform="rotate(20.77 0 0)" fill="none" stroke="#b9962f" stroke-width="0.5" opacity="0.7"/><ellipse cx="0" cy="0" rx="300" ry="104" transform="rotate(27.69 0 0)" fill="none" stroke="#b9962f" stroke-width="0.5" opacity="0.7"/><ellipse cx="0" cy="0" rx="300" ry="104" transform="rotate(34.62 0 0)" fill="none" stroke="#b9962f" stroke-width="0.5" opacity="0.7"/><ellipse cx="0" cy="0" rx="300" ry="104" transform="rotate(41.54 0 0)" fill="none" stroke="#b9962f" stroke-width="0.5" opacity="0.7"/><ellipse cx="0" cy="0" rx="300" ry="104" transform="rotate(48.46 0 0)" fill="none" stroke="#b9962f" stroke-width="0.5" opacity="0.7"/><ellipse cx="0" cy="0" rx="300" ry="104" transform="rotate(55.38 0 0)" fill="none" stroke="#b9962f" stroke-width="0.5" opacity="0.7"/><ellipse cx="0" cy="0" rx="300" ry="104" transform="rotate(62.31 0 0)" fill="none" stroke="#b9962f" stroke-width="0.5" opacity="0.7"/><ellipse cx="0" cy="0" rx="300" ry="104" transform="rotate(69.23 0 0)" fill="none" stroke="#b9962f" stroke-width="0.5" opacity="0.7"/><ellipse cx="0" cy="0" rx="300" ry="104" transform="rotate(76.15 0 0)" fill="none" stroke="#b9962f" stroke-width="0.5" opacity="0.7"/><ellipse cx="0" cy="0" rx="300" ry="104" transform="rotate(83.08 0 0)" fill="none" stroke="#b9962f" stroke-width="0.5" opacity="0.7"/><ellipse cx="0" cy="0" rx="300" ry="104" transform="rotate(90.00 0 0)" fill="none" stroke="#b9962f" stroke-width="0.5" opacity="0.7"/><ellipse cx="0" cy="0" rx="300" ry="104" transform="rotate(96.92 0 0)" fill="none" stroke="#b9962f" stroke-width="0.5" opacity="0.7"/><ellipse cx="0" cy="0" rx="300" ry="104" transform="rotate(103.85 0 0)" fill="none" stroke="#b9962f" stroke-width="0.5" opacity="0.7"/><ellipse cx="0" cy="0" rx="300" ry="104" transform="rotate(110.77 0 0)" fill="none" stroke="#b9962f" stroke-width="0.5" opacity="0.7"/><ellipse cx="0" cy="0" rx="300" ry="104" transform="rotate(117.69 0 0)" fill="none" stroke="#b9962f" stroke-width="0.5" opacity="0.7"/><ellipse cx="0" cy="0" rx="300" ry="104" transform="rotate(124.62 0 0)" fill="none" stroke="#b9962f" stroke-width="0.5" opacity="0.7"/><ellipse cx="0" cy="0" rx="300" ry="104" transform="rotate(131.54 0 0)" fill="none" stroke="#b9962f" stroke-width="0.5" opacity="0.7"/><ellipse cx="0" cy="0" rx="300" ry="104" transform="rotate(138.46 0 0)" fill="none" stroke="#b9962f" stroke-width="0.5" opacity="0.7"/><ellipse cx="0" cy="0" rx="300" ry="104" transform="rotate(145.38 0 0)" fill="none" stroke="#b9962f" stroke-width="0.5" opacity="0.7"/><ellipse cx="0" cy="0" rx="300" ry="104" transform="rotate(152.31 0 0)" fill="none" stroke="#b9962f" stroke-width="0.5" opacity="0.7"/><ellipse cx="0" cy="0" rx="300" ry="104" transform="rotate(159.23 0 0)" fill="none" stroke="#b9962f" stroke-width="0.5" opacity="0.7"/><ellipse cx="0" cy="0" rx="300" ry="104" transform="rotate(166.15 0 0)" fill="none" stroke="#b9962f" stroke-width="0.5" opacity="0.7"/><ellipse cx="0" cy="0" rx="300" ry="104" transform="rotate(173.08 0 0)" fill="none" stroke="#b9962f" stroke-width="0.5" opacity="0.7"/></g><g opacity="0.4"><ellipse cx="0" cy="0" rx="190" ry="190" transform="rotate(0.00 0 0)" fill="none" stroke="#b9962f" stroke-width="0.45" opacity="0.6"/><ellipse cx="0" cy="0" rx="190" ry="190" transform="rotate(9.00 0 0)" fill="none" stroke="#b9962f" stroke-width="0.45" opacity="0.6"/><ellipse cx="0" cy="0" rx="190" ry="190" transform="rotate(18.00 0 0)" fill="none" stroke="#b9962f" stroke-width="0.45" opacity="0.6"/><ellipse cx="0" cy="0" rx="190" ry="190" transform="rotate(27.00 0 0)" fill="none" stroke="#b9962f" stroke-width="0.45" opacity="0.6"/><ellipse cx="0" cy="0" rx="190" ry="190" transform="rotate(36.00 0 0)" fill="none" stroke="#b9962f" stroke-width="0.45" opacity="0.6"/><ellipse cx="0" cy="0" rx="190" ry="190" transform="rotate(45.00 0 0)" fill="none" stroke="#b9962f" stroke-width="0.45" opacity="0.6"/><ellipse cx="0" cy="0" rx="190" ry="190" transform="rotate(54.00 0 0)" fill="none" stroke="#b9962f" stroke-width="0.45" opacity="0.6"/><ellipse cx="0" cy="0" rx="190" ry="190" transform="rotate(63.00 0 0)" fill="none" stroke="#b9962f" stroke-width="0.45" opacity="0.6"/><ellipse cx="0" cy="0" rx="190" ry="190" transform="rotate(72.00 0 0)" fill="none" stroke="#b9962f" stroke-width="0.45" opacity="0.6"/><ellipse cx="0" cy="0" rx="190" ry="190" transform="rotate(81.00 0 0)" fill="none" stroke="#b9962f" stroke-width="0.45" opacity="0.6"/><ellipse cx="0" cy="0" rx="190" ry="190" transform="rotate(90.00 0 0)" fill="none" stroke="#b9962f" stroke-width="0.45" opacity="0.6"/><ellipse cx="0" cy="0" rx="190" ry="190" transform="rotate(99.00 0 0)" fill="none" stroke="#b9962f" stroke-width="0.45" opacity="0.6"/><ellipse cx="0" cy="0" rx="190" ry="190" transform="rotate(108.00 0 0)" fill="none" stroke="#b9962f" stroke-width="0.45" opacity="0.6"/><ellipse cx="0" cy="0" rx="190" ry="190" transform="rotate(117.00 0 0)" fill="none" stroke="#b9962f" stroke-width="0.45" opacity="0.6"/><ellipse cx="0" cy="0" rx="190" ry="190" transform="rotate(126.00 0 0)" fill="none" stroke="#b9962f" stroke-width="0.45" opacity="0.6"/><ellipse cx="0" cy="0" rx="190" ry="190" transform="rotate(135.00 0 0)" fill="none" stroke="#b9962f" stroke-width="0.45" opacity="0.6"/><ellipse cx="0" cy="0" rx="190" ry="190" transform="rotate(144.00 0 0)" fill="none" stroke="#b9962f" stroke-width="0.45" opacity="0.6"/><ellipse cx="0" cy="0" rx="190" ry="190" transform="rotate(153.00 0 0)" fill="none" stroke="#b9962f" stroke-width="0.45" opacity="0.6"/><ellipse cx="0" cy="0" rx="190" ry="190" transform="rotate(162.00 0 0)" fill="none" stroke="#b9962f" stroke-width="0.45" opacity="0.6"/><ellipse cx="0" cy="0" rx="190" ry="190" transform="rotate(171.00 0 0)" fill="none" stroke="#b9962f" stroke-width="0.45" opacity="0.6"/></g><g opacity="0.55"><ellipse cx="1000" cy="0" rx="300" ry="104" transform="rotate(0.00 1000 0)" fill="none" stroke="#b9962f" stroke-width="0.5" opacity="0.7"/><ellipse cx="1000" cy="0" rx="300" ry="104" transform="rotate(6.92 1000 0)" fill="none" stroke="#b9962f" stroke-width="0.5" opacity="0.7"/><ellipse cx="1000" cy="0" rx="300" ry="104" transform="rotate(13.85 1000 0)" fill="none" stroke="#b9962f" stroke-width="0.5" opacity="0.7"/><ellipse cx="1000" cy="0" rx="300" ry="104" transform="rotate(20.77 1000 0)" fill="none" stroke="#b9962f" stroke-width="0.5" opacity="0.7"/><ellipse cx="1000" cy="0" rx="300" ry="104" transform="rotate(27.69 1000 0)" fill="none" stroke="#b9962f" stroke-width="0.5" opacity="0.7"/><ellipse cx="1000" cy="0" rx="300" ry="104" transform="rotate(34.62 1000 0)" fill="none" stroke="#b9962f" stroke-width="0.5" opacity="0.7"/><ellipse cx="1000" cy="0" rx="300" ry="104" transform="rotate(41.54 1000 0)" fill="none" stroke="#b9962f" stroke-width="0.5" opacity="0.7"/><ellipse cx="1000" cy="0" rx="300" ry="104" transform="rotate(48.46 1000 0)" fill="none" stroke="#b9962f" stroke-width="0.5" opacity="0.7"/><ellipse cx="1000" cy="0" rx="300" ry="104" transform="rotate(55.38 1000 0)" fill="none" stroke="#b9962f" stroke-width="0.5" opacity="0.7"/><ellipse cx="1000" cy="0" rx="300" ry="104" transform="rotate(62.31 1000 0)" fill="none" stroke="#b9962f" stroke-width="0.5" opacity="0.7"/><ellipse cx="1000" cy="0" rx="300" ry="104" transform="rotate(69.23 1000 0)" fill="none" stroke="#b9962f" stroke-width="0.5" opacity="0.7"/><ellipse cx="1000" cy="0" rx="300" ry="104" transform="rotate(76.15 1000 0)" fill="none" stroke="#b9962f" stroke-width="0.5" opacity="0.7"/><ellipse cx="1000" cy="0" rx="300" ry="104" transform="rotate(83.08 1000 0)" fill="none" stroke="#b9962f" stroke-width="0.5" opacity="0.7"/><ellipse cx="1000" cy="0" rx="300" ry="104" transform="rotate(90.00 1000 0)" fill="none" stroke="#b9962f" stroke-width="0.5" opacity="0.7"/><ellipse cx="1000" cy="0" rx="300" ry="104" transform="rotate(96.92 1000 0)" fill="none" stroke="#b9962f" stroke-width="0.5" opacity="0.7"/><ellipse cx="1000" cy="0" rx="300" ry="104" transform="rotate(103.85 1000 0)" fill="none" stroke="#b9962f" stroke-width="0.5" opacity="0.7"/><ellipse cx="1000" cy="0" rx="300" ry="104" transform="rotate(110.77 1000 0)" fill="none" stroke="#b9962f" stroke-width="0.5" opacity="0.7"/><ellipse cx="1000" cy="0" rx="300" ry="104" transform="rotate(117.69 1000 0)" fill="none" stroke="#b9962f" stroke-width="0.5" opacity="0.7"/><ellipse cx="1000" cy="0" rx="300" ry="104" transform="rotate(124.62 1000 0)" fill="none" stroke="#b9962f" stroke-width="0.5" opacity="0.7"/><ellipse cx="1000" cy="0" rx="300" ry="104" transform="rotate(131.54 1000 0)" fill="none" stroke="#b9962f" stroke-width="0.5" opacity="0.7"/><ellipse cx="1000" cy="0" rx="300" ry="104" transform="rotate(138.46 1000 0)" fill="none" stroke="#b9962f" stroke-width="0.5" opacity="0.7"/><ellipse cx="1000" cy="0" rx="300" ry="104" transform="rotate(145.38 1000 0)" fill="none" stroke="#b9962f" stroke-width="0.5" opacity="0.7"/><ellipse cx="1000" cy="0" rx="300" ry="104" transform="rotate(152.31 1000 0)" fill="none" stroke="#b9962f" stroke-width="0.5" opacity="0.7"/><ellipse cx="1000" cy="0" rx="300" ry="104" transform="rotate(159.23 1000 0)" fill="none" stroke="#b9962f" stroke-width="0.5" opacity="0.7"/><ellipse cx="1000" cy="0" rx="300" ry="104" transform="rotate(166.15 1000 0)" fill="none" stroke="#b9962f" stroke-width="0.5" opacity="0.7"/><ellipse cx="1000" cy="0" rx="300" ry="104" transform="rotate(173.08 1000 0)" fill="none" stroke="#b9962f" stroke-width="0.5" opacity="0.7"/></g><g opacity="0.4"><ellipse cx="1000" cy="0" rx="190" ry="190" transform="rotate(0.00 1000 0)" fill="none" stroke="#b9962f" stroke-width="0.45" opacity="0.6"/><ellipse cx="1000" cy="0" rx="190" ry="190" transform="rotate(9.00 1000 0)" fill="none" stroke="#b9962f" stroke-width="0.45" opacity="0.6"/><ellipse cx="1000" cy="0" rx="190" ry="190" transform="rotate(18.00 1000 0)" fill="none" stroke="#b9962f" stroke-width="0.45" opacity="0.6"/><ellipse cx="1000" cy="0" rx="190" ry="190" transform="rotate(27.00 1000 0)" fill="none" stroke="#b9962f" stroke-width="0.45" opacity="0.6"/><ellipse cx="1000" cy="0" rx="190" ry="190" transform="rotate(36.00 1000 0)" fill="none" stroke="#b9962f" stroke-width="0.45" opacity="0.6"/><ellipse cx="1000" cy="0" rx="190" ry="190" transform="rotate(45.00 1000 0)" fill="none" stroke="#b9962f" stroke-width="0.45" opacity="0.6"/><ellipse cx="1000" cy="0" rx="190" ry="190" transform="rotate(54.00 1000 0)" fill="none" stroke="#b9962f" stroke-width="0.45" opacity="0.6"/><ellipse cx="1000" cy="0" rx="190" ry="190" transform="rotate(63.00 1000 0)" fill="none" stroke="#b9962f" stroke-width="0.45" opacity="0.6"/><ellipse cx="1000" cy="0" rx="190" ry="190" transform="rotate(72.00 1000 0)" fill="none" stroke="#b9962f" stroke-width="0.45" opacity="0.6"/><ellipse cx="1000" cy="0" rx="190" ry="190" transform="rotate(81.00 1000 0)" fill="none" stroke="#b9962f" stroke-width="0.45" opacity="0.6"/><ellipse cx="1000" cy="0" rx="190" ry="190" transform="rotate(90.00 1000 0)" fill="none" stroke="#b9962f" stroke-width="0.45" opacity="0.6"/><ellipse cx="1000" cy="0" rx="190" ry="190" transform="rotate(99.00 1000 0)" fill="none" stroke="#b9962f" stroke-width="0.45" opacity="0.6"/><ellipse cx="1000" cy="0" rx="190" ry="190" transform="rotate(108.00 1000 0)" fill="none" stroke="#b9962f" stroke-width="0.45" opacity="0.6"/><ellipse cx="1000" cy="0" rx="190" ry="190" transform="rotate(117.00 1000 0)" fill="none" stroke="#b9962f" stroke-width="0.45" opacity="0.6"/><ellipse cx="1000" cy="0" rx="190" ry="190" transform="rotate(126.00 1000 0)" fill="none" stroke="#b9962f" stroke-width="0.45" opacity="0.6"/><ellipse cx="1000" cy="0" rx="190" ry="190" transform="rotate(135.00 1000 0)" fill="none" stroke="#b9962f" stroke-width="0.45" opacity="0.6"/><ellipse cx="1000" cy="0" rx="190" ry="190" transform="rotate(144.00 1000 0)" fill="none" stroke="#b9962f" stroke-width="0.45" opacity="0.6"/><ellipse cx="1000" cy="0" rx="190" ry="190" transform="rotate(153.00 1000 0)" fill="none" stroke="#b9962f" stroke-width="0.45" opacity="0.6"/><ellipse cx="1000" cy="0" rx="190" ry="190" transform="rotate(162.00 1000 0)" fill="none" stroke="#b9962f" stroke-width="0.45" opacity="0.6"/><ellipse cx="1000" cy="0" rx="190" ry="190" transform="rotate(171.00 1000 0)" fill="none" stroke="#b9962f" stroke-width="0.45" opacity="0.6"/></g><g opacity="0.55"><ellipse cx="0" cy="700" rx="300" ry="104" transform="rotate(0.00 0 700)" fill="none" stroke="#b9962f" stroke-width="0.5" opacity="0.7"/><ellipse cx="0" cy="700" rx="300" ry="104" transform="rotate(6.92 0 700)" fill="none" stroke="#b9962f" stroke-width="0.5" opacity="0.7"/><ellipse cx="0" cy="700" rx="300" ry="104" transform="rotate(13.85 0 700)" fill="none" stroke="#b9962f" stroke-width="0.5" opacity="0.7"/><ellipse cx="0" cy="700" rx="300" ry="104" transform="rotate(20.77 0 700)" fill="none" stroke="#b9962f" stroke-width="0.5" opacity="0.7"/><ellipse cx="0" cy="700" rx="300" ry="104" transform="rotate(27.69 0 700)" fill="none" stroke="#b9962f" stroke-width="0.5" opacity="0.7"/><ellipse cx="0" cy="700" rx="300" ry="104" transform="rotate(34.62 0 700)" fill="none" stroke="#b9962f" stroke-width="0.5" opacity="0.7"/><ellipse cx="0" cy="700" rx="300" ry="104" transform="rotate(41.54 0 700)" fill="none" stroke="#b9962f" stroke-width="0.5" opacity="0.7"/><ellipse cx="0" cy="700" rx="300" ry="104" transform="rotate(48.46 0 700)" fill="none" stroke="#b9962f" stroke-width="0.5" opacity="0.7"/><ellipse cx="0" cy="700" rx="300" ry="104" transform="rotate(55.38 0 700)" fill="none" stroke="#b9962f" stroke-width="0.5" opacity="0.7"/><ellipse cx="0" cy="700" rx="300" ry="104" transform="rotate(62.31 0 700)" fill="none" stroke="#b9962f" stroke-width="0.5" opacity="0.7"/><ellipse cx="0" cy="700" rx="300" ry="104" transform="rotate(69.23 0 700)" fill="none" stroke="#b9962f" stroke-width="0.5" opacity="0.7"/><ellipse cx="0" cy="700" rx="300" ry="104" transform="rotate(76.15 0 700)" fill="none" stroke="#b9962f" stroke-width="0.5" opacity="0.7"/><ellipse cx="0" cy="700" rx="300" ry="104" transform="rotate(83.08 0 700)" fill="none" stroke="#b9962f" stroke-width="0.5" opacity="0.7"/><ellipse cx="0" cy="700" rx="300" ry="104" transform="rotate(90.00 0 700)" fill="none" stroke="#b9962f" stroke-width="0.5" opacity="0.7"/><ellipse cx="0" cy="700" rx="300" ry="104" transform="rotate(96.92 0 700)" fill="none" stroke="#b9962f" stroke-width="0.5" opacity="0.7"/><ellipse cx="0" cy="700" rx="300" ry="104" transform="rotate(103.85 0 700)" fill="none" stroke="#b9962f" stroke-width="0.5" opacity="0.7"/><ellipse cx="0" cy="700" rx="300" ry="104" transform="rotate(110.77 0 700)" fill="none" stroke="#b9962f" stroke-width="0.5" opacity="0.7"/><ellipse cx="0" cy="700" rx="300" ry="104" transform="rotate(117.69 0 700)" fill="none" stroke="#b9962f" stroke-width="0.5" opacity="0.7"/><ellipse cx="0" cy="700" rx="300" ry="104" transform="rotate(124.62 0 700)" fill="none" stroke="#b9962f" stroke-width="0.5" opacity="0.7"/><ellipse cx="0" cy="700" rx="300" ry="104" transform="rotate(131.54 0 700)" fill="none" stroke="#b9962f" stroke-width="0.5" opacity="0.7"/><ellipse cx="0" cy="700" rx="300" ry="104" transform="rotate(138.46 0 700)" fill="none" stroke="#b9962f" stroke-width="0.5" opacity="0.7"/><ellipse cx="0" cy="700" rx="300" ry="104" transform="rotate(145.38 0 700)" fill="none" stroke="#b9962f" stroke-width="0.5" opacity="0.7"/><ellipse cx="0" cy="700" rx="300" ry="104" transform="rotate(152.31 0 700)" fill="none" stroke="#b9962f" stroke-width="0.5" opacity="0.7"/><ellipse cx="0" cy="700" rx="300" ry="104" transform="rotate(159.23 0 700)" fill="none" stroke="#b9962f" stroke-width="0.5" opacity="0.7"/><ellipse cx="0" cy="700" rx="300" ry="104" transform="rotate(166.15 0 700)" fill="none" stroke="#b9962f" stroke-width="0.5" opacity="0.7"/><ellipse cx="0" cy="700" rx="300" ry="104" transform="rotate(173.08 0 700)" fill="none" stroke="#b9962f" stroke-width="0.5" opacity="0.7"/></g><g opacity="0.4"><ellipse cx="0" cy="700" rx="190" ry="190" transform="rotate(0.00 0 700)" fill="none" stroke="#b9962f" stroke-width="0.45" opacity="0.6"/><ellipse cx="0" cy="700" rx="190" ry="190" transform="rotate(9.00 0 700)" fill="none" stroke="#b9962f" stroke-width="0.45" opacity="0.6"/><ellipse cx="0" cy="700" rx="190" ry="190" transform="rotate(18.00 0 700)" fill="none" stroke="#b9962f" stroke-width="0.45" opacity="0.6"/><ellipse cx="0" cy="700" rx="190" ry="190" transform="rotate(27.00 0 700)" fill="none" stroke="#b9962f" stroke-width="0.45" opacity="0.6"/><ellipse cx="0" cy="700" rx="190" ry="190" transform="rotate(36.00 0 700)" fill="none" stroke="#b9962f" stroke-width="0.45" opacity="0.6"/><ellipse cx="0" cy="700" rx="190" ry="190" transform="rotate(45.00 0 700)" fill="none" stroke="#b9962f" stroke-width="0.45" opacity="0.6"/><ellipse cx="0" cy="700" rx="190" ry="190" transform="rotate(54.00 0 700)" fill="none" stroke="#b9962f" stroke-width="0.45" opacity="0.6"/><ellipse cx="0" cy="700" rx="190" ry="190" transform="rotate(63.00 0 700)" fill="none" stroke="#b9962f" stroke-width="0.45" opacity="0.6"/><ellipse cx="0" cy="700" rx="190" ry="190" transform="rotate(72.00 0 700)" fill="none" stroke="#b9962f" stroke-width="0.45" opacity="0.6"/><ellipse cx="0" cy="700" rx="190" ry="190" transform="rotate(81.00 0 700)" fill="none" stroke="#b9962f" stroke-width="0.45" opacity="0.6"/><ellipse cx="0" cy="700" rx="190" ry="190" transform="rotate(90.00 0 700)" fill="none" stroke="#b9962f" stroke-width="0.45" opacity="0.6"/><ellipse cx="0" cy="700" rx="190" ry="190" transform="rotate(99.00 0 700)" fill="none" stroke="#b9962f" stroke-width="0.45" opacity="0.6"/><ellipse cx="0" cy="700" rx="190" ry="190" transform="rotate(108.00 0 700)" fill="none" stroke="#b9962f" stroke-width="0.45" opacity="0.6"/><ellipse cx="0" cy="700" rx="190" ry="190" transform="rotate(117.00 0 700)" fill="none" stroke="#b9962f" stroke-width="0.45" opacity="0.6"/><ellipse cx="0" cy="700" rx="190" ry="190" transform="rotate(126.00 0 700)" fill="none" stroke="#b9962f" stroke-width="0.45" opacity="0.6"/><ellipse cx="0" cy="700" rx="190" ry="190" transform="rotate(135.00 0 700)" fill="none" stroke="#b9962f" stroke-width="0.45" opacity="0.6"/><ellipse cx="0" cy="700" rx="190" ry="190" transform="rotate(144.00 0 700)" fill="none" stroke="#b9962f" stroke-width="0.45" opacity="0.6"/><ellipse cx="0" cy="700" rx="190" ry="190" transform="rotate(153.00 0 700)" fill="none" stroke="#b9962f" stroke-width="0.45" opacity="0.6"/><ellipse cx="0" cy="700" rx="190" ry="190" transform="rotate(162.00 0 700)" fill="none" stroke="#b9962f" stroke-width="0.45" opacity="0.6"/><ellipse cx="0" cy="700" rx="190" ry="190" transform="rotate(171.00 0 700)" fill="none" stroke="#b9962f" stroke-width="0.45" opacity="0.6"/></g><g opacity="0.55"><ellipse cx="1000" cy="700" rx="300" ry="104" transform="rotate(0.00 1000 700)" fill="none" stroke="#b9962f" stroke-width="0.5" opacity="0.7"/><ellipse cx="1000" cy="700" rx="300" ry="104" transform="rotate(6.92 1000 700)" fill="none" stroke="#b9962f" stroke-width="0.5" opacity="0.7"/><ellipse cx="1000" cy="700" rx="300" ry="104" transform="rotate(13.85 1000 700)" fill="none" stroke="#b9962f" stroke-width="0.5" opacity="0.7"/><ellipse cx="1000" cy="700" rx="300" ry="104" transform="rotate(20.77 1000 700)" fill="none" stroke="#b9962f" stroke-width="0.5" opacity="0.7"/><ellipse cx="1000" cy="700" rx="300" ry="104" transform="rotate(27.69 1000 700)" fill="none" stroke="#b9962f" stroke-width="0.5" opacity="0.7"/><ellipse cx="1000" cy="700" rx="300" ry="104" transform="rotate(34.62 1000 700)" fill="none" stroke="#b9962f" stroke-width="0.5" opacity="0.7"/><ellipse cx="1000" cy="700" rx="300" ry="104" transform="rotate(41.54 1000 700)" fill="none" stroke="#b9962f" stroke-width="0.5" opacity="0.7"/><ellipse cx="1000" cy="700" rx="300" ry="104" transform="rotate(48.46 1000 700)" fill="none" stroke="#b9962f" stroke-width="0.5" opacity="0.7"/><ellipse cx="1000" cy="700" rx="300" ry="104" transform="rotate(55.38 1000 700)" fill="none" stroke="#b9962f" stroke-width="0.5" opacity="0.7"/><ellipse cx="1000" cy="700" rx="300" ry="104" transform="rotate(62.31 1000 700)" fill="none" stroke="#b9962f" stroke-width="0.5" opacity="0.7"/><ellipse cx="1000" cy="700" rx="300" ry="104" transform="rotate(69.23 1000 700)" fill="none" stroke="#b9962f" stroke-width="0.5" opacity="0.7"/><ellipse cx="1000" cy="700" rx="300" ry="104" transform="rotate(76.15 1000 700)" fill="none" stroke="#b9962f" stroke-width="0.5" opacity="0.7"/><ellipse cx="1000" cy="700" rx="300" ry="104" transform="rotate(83.08 1000 700)" fill="none" stroke="#b9962f" stroke-width="0.5" opacity="0.7"/><ellipse cx="1000" cy="700" rx="300" ry="104" transform="rotate(90.00 1000 700)" fill="none" stroke="#b9962f" stroke-width="0.5" opacity="0.7"/><ellipse cx="1000" cy="700" rx="300" ry="104" transform="rotate(96.92 1000 700)" fill="none" stroke="#b9962f" stroke-width="0.5" opacity="0.7"/><ellipse cx="1000" cy="700" rx="300" ry="104" transform="rotate(103.85 1000 700)" fill="none" stroke="#b9962f" stroke-width="0.5" opacity="0.7"/><ellipse cx="1000" cy="700" rx="300" ry="104" transform="rotate(110.77 1000 700)" fill="none" stroke="#b9962f" stroke-width="0.5" opacity="0.7"/><ellipse cx="1000" cy="700" rx="300" ry="104" transform="rotate(117.69 1000 700)" fill="none" stroke="#b9962f" stroke-width="0.5" opacity="0.7"/><ellipse cx="1000" cy="700" rx="300" ry="104" transform="rotate(124.62 1000 700)" fill="none" stroke="#b9962f" stroke-width="0.5" opacity="0.7"/><ellipse cx="1000" cy="700" rx="300" ry="104" transform="rotate(131.54 1000 700)" fill="none" stroke="#b9962f" stroke-width="0.5" opacity="0.7"/><ellipse cx="1000" cy="700" rx="300" ry="104" transform="rotate(138.46 1000 700)" fill="none" stroke="#b9962f" stroke-width="0.5" opacity="0.7"/><ellipse cx="1000" cy="700" rx="300" ry="104" transform="rotate(145.38 1000 700)" fill="none" stroke="#b9962f" stroke-width="0.5" opacity="0.7"/><ellipse cx="1000" cy="700" rx="300" ry="104" transform="rotate(152.31 1000 700)" fill="none" stroke="#b9962f" stroke-width="0.5" opacity="0.7"/><ellipse cx="1000" cy="700" rx="300" ry="104" transform="rotate(159.23 1000 700)" fill="none" stroke="#b9962f" stroke-width="0.5" opacity="0.7"/><ellipse cx="1000" cy="700" rx="300" ry="104" transform="rotate(166.15 1000 700)" fill="none" stroke="#b9962f" stroke-width="0.5" opacity="0.7"/><ellipse cx="1000" cy="700" rx="300" ry="104" transform="rotate(173.08 1000 700)" fill="none" stroke="#b9962f" stroke-width="0.5" opacity="0.7"/></g><g opacity="0.4"><ellipse cx="1000" cy="700" rx="190" ry="190" transform="rotate(0.00 1000 700)" fill="none" stroke="#b9962f" stroke-width="0.45" opacity="0.6"/><ellipse cx="1000" cy="700" rx="190" ry="190" transform="rotate(9.00 1000 700)" fill="none" stroke="#b9962f" stroke-width="0.45" opacity="0.6"/><ellipse cx="1000" cy="700" rx="190" ry="190" transform="rotate(18.00 1000 700)" fill="none" stroke="#b9962f" stroke-width="0.45" opacity="0.6"/><ellipse cx="1000" cy="700" rx="190" ry="190" transform="rotate(27.00 1000 700)" fill="none" stroke="#b9962f" stroke-width="0.45" opacity="0.6"/><ellipse cx="1000" cy="700" rx="190" ry="190" transform="rotate(36.00 1000 700)" fill="none" stroke="#b9962f" stroke-width="0.45" opacity="0.6"/><ellipse cx="1000" cy="700" rx="190" ry="190" transform="rotate(45.00 1000 700)" fill="none" stroke="#b9962f" stroke-width="0.45" opacity="0.6"/><ellipse cx="1000" cy="700" rx="190" ry="190" transform="rotate(54.00 1000 700)" fill="none" stroke="#b9962f" stroke-width="0.45" opacity="0.6"/><ellipse cx="1000" cy="700" rx="190" ry="190" transform="rotate(63.00 1000 700)" fill="none" stroke="#b9962f" stroke-width="0.45" opacity="0.6"/><ellipse cx="1000" cy="700" rx="190" ry="190" transform="rotate(72.00 1000 700)" fill="none" stroke="#b9962f" stroke-width="0.45" opacity="0.6"/><ellipse cx="1000" cy="700" rx="190" ry="190" transform="rotate(81.00 1000 700)" fill="none" stroke="#b9962f" stroke-width="0.45" opacity="0.6"/><ellipse cx="1000" cy="700" rx="190" ry="190" transform="rotate(90.00 1000 700)" fill="none" stroke="#b9962f" stroke-width="0.45" opacity="0.6"/><ellipse cx="1000" cy="700" rx="190" ry="190" transform="rotate(99.00 1000 700)" fill="none" stroke="#b9962f" stroke-width="0.45" opacity="0.6"/><ellipse cx="1000" cy="700" rx="190" ry="190" transform="rotate(108.00 1000 700)" fill="none" stroke="#b9962f" stroke-width="0.45" opacity="0.6"/><ellipse cx="1000" cy="700" rx="190" ry="190" transform="rotate(117.00 1000 700)" fill="none" stroke="#b9962f" stroke-width="0.45" opacity="0.6"/><ellipse cx="1000" cy="700" rx="190" ry="190" transform="rotate(126.00 1000 700)" fill="none" stroke="#b9962f" stroke-width="0.45" opacity="0.6"/><ellipse cx="1000" cy="700" rx="190" ry="190" transform="rotate(135.00 1000 700)" fill="none" stroke="#b9962f" stroke-width="0.45" opacity="0.6"/><ellipse cx="1000" cy="700" rx="190" ry="190" transform="rotate(144.00 1000 700)" fill="none" stroke="#b9962f" stroke-width="0.45" opacity="0.6"/><ellipse cx="1000" cy="700" rx="190" ry="190" transform="rotate(153.00 1000 700)" fill="none" stroke="#b9962f" stroke-width="0.45" opacity="0.6"/><ellipse cx="1000" cy="700" rx="190" ry="190" transform="rotate(162.00 1000 700)" fill="none" stroke="#b9962f" stroke-width="0.45" opacity="0.6"/><ellipse cx="1000" cy="700" rx="190" ry="190" transform="rotate(171.00 1000 700)" fill="none" stroke="#b9962f" stroke-width="0.45" opacity="0.6"/></g></svg>